<?xml version="1.0" encoding="UTF-8"?>
<svg width="28px" height="28px" viewBox="0 0 28 28" version="1.1" xmlns="http://www.w3.org/2000/svg" xmlns:xlink="http://www.w3.org/1999/xlink"><g fill="#FFFFFF" fill-rule="nonzero"><path d="M14.0001159,7.10542736e-15 C21.7318485,7.10542736e-15 28,6.42655274 28,14.354441 C28,20.6944696 23.993641,26.0732252 18.4339806,27.9734273 C17.7243304,28.1143855 17.4723246,27.6667897 17.4723246,27.2848001 C17.4723246,26.8120078 17.4885531,25.2662217 17.4885531,23.3455772 C17.4885531,22.0063555 17.0411095,21.132795 16.5389526,20.6873386 C19.6564521,20.3319718 22.9316001,19.1180198 22.9316001,13.604724 C22.9316001,12.0375447 22.3884082,10.7570357 21.490739,9.75178746 C21.6361002,9.39024041 22.1155372,7.93026531 21.353492,5.9530473 C21.353492,5.9530473 20.1794742,5.56725447 17.5073318,7.42443216 C16.388491,7.10638486 15.1898986,6.94688576 14.0001159,6.94141859 C12.8103332,6.94688576 11.6126682,7.10638486 10.4959139,7.42443216 C7.82052577,5.56725447 6.6448851,5.9530473 6.6448851,5.9530473 C5.88469467,7.93026531 6.36389983,9.39024041 6.50926103,9.75178746 C5.61367833,10.7570357 5.06677705,12.0375447 5.06677705,13.604724 C5.06677705,19.1049461 8.33566547,20.335775 11.4452826,20.6987483 C11.0449017,21.0572052 10.6820783,21.6904475 10.5564231,22.6182044 C9.75751602,22.9849809 7.73103707,23.6194116 6.48236806,21.4249326 C6.48236806,21.4249326 5.74211549,20.0469652 4.33626165,19.9457035 C4.33626165,19.9457035 2.97028359,19.9274003 4.24051335,20.8183132 C4.24051335,20.8183132 5.15812047,21.2594909 5.79497413,22.9186616 C5.79497413,22.9186616 6.61683297,25.4806303 10.5116788,24.6122993 C10.5177065,25.8117514 10.5306893,26.9425071 10.5306893,27.2848001 C10.5306893,27.6639373 10.2738149,28.1082052 9.57413371,27.9753289 C4.01145933,26.0772662 0,20.696609 0,14.354441 C0,6.42655274 6.26907885,7.10542736e-15 14.0001159,7.10542736e-15 Z M5.34383472,20.5113447 C5.31305787,20.5819525 5.20383472,20.6031349 5.10433056,20.5546508 C5.00297523,20.508285 4.94604959,20.412023 4.97890909,20.3411797 C5.00899173,20.2684536 5.11844629,20.2482127 5.21957025,20.2969321 C5.32115701,20.343298 5.37900827,20.4405014 5.34383472,20.5113447 Z M5.90985122,21.1534054 C5.8432066,21.2162463 5.71292563,21.1870618 5.62452893,21.08774 C5.53312396,20.9886537 5.516,20.8561463 5.58357025,20.7923639 C5.65229751,20.7295229 5.77864462,20.7589428 5.87028101,20.8580292 C5.96168594,20.9582923 5.97950411,21.0898583 5.90985122,21.1534054 Z M6.46082645,21.9719857 C6.3752066,22.0324731 6.2352066,21.9757515 6.14866117,21.8493634 C6.06304132,21.7229753 6.06304132,21.5714038 6.15051239,21.5106811 C6.23728924,21.4499583 6.3752066,21.5045617 6.46290909,21.6300084 C6.54829751,21.7585146 6.54829751,21.9100861 6.46082645,21.9719857 Z M7.21566944,22.7627936 C7.13907437,22.8486998 6.97593391,22.8256345 6.85652893,22.7084256 C6.73434711,22.5938055 6.70033056,22.4311721 6.77715701,22.3452658 C6.85467767,22.2591243 7.01874381,22.2833663 7.13907437,22.3996339 C7.26033056,22.5140186 7.29735538,22.6778288 7.21566944,22.7627936 Z M8.25699173,23.22198 C8.2232066,23.333305 8.06608264,23.3839073 7.90780167,23.3366 C7.74975208,23.2878806 7.64631406,23.1574915 7.67824792,23.0449896 C7.71110746,22.9329585 7.86892563,22.880238 8.02836365,22.9308403 C8.18618183,22.9793243 8.28985122,23.1087721 8.25699173,23.22198 Z M9.40059503,23.3071801 C9.40452893,23.4243891 9.27031406,23.5215926 9.10416528,23.5237109 C8.93709091,23.5274766 8.80195041,23.4326267 8.80009919,23.3173005 C8.80009919,23.1989147 8.93130579,23.1026527 9.09838015,23.0998284 C9.26452893,23.0965334 9.40059503,23.1906771 9.40059503,23.3071801 Z M10.4648264,23.1228936 C10.4847273,23.2372784 10.3692562,23.3547227 10.2042645,23.3860256 C10.0420496,23.4161516 9.89186777,23.3455437 9.87127274,23.2321004 C9.85114051,23.1148914 9.96869421,22.997447 10.1306777,22.9670856 C10.2959008,22.9379011 10.4437686,23.006626 10.4648264,23.1228936 Z"></path></g></svg>