<?xml version="1.0" encoding="UTF-8"?>
<svg width="14px" height="28px" viewBox="0 0 14 28" version="1.1" xmlns="http://www.w3.org/2000/svg" xmlns:xlink="http://www.w3.org/1999/xlink">
    <!-- Generator: Sketch 58 (84663) - https://sketch.com -->
    <title>Shape</title>
    <desc>Created with Sketch.</desc>
    <g id="Page-1" stroke="none" stroke-width="1" fill="none" fill-rule="evenodd">
        <g id="Apple-Devices" transform="translate(-291.000000, -343.000000)" fill="#FFFFFF">
            <path d="M302.994141,343 C304.101946,343 305,343.899898 305,344.991244 L305,369.008756 C305,370.10849 304.10294,371 302.994141,371 L293.005859,371 C291.898054,371 291,370.100102 291,369.008756 L291,344.991244 C291,343.89151 291.89706,343 293.005859,343 L302.994141,343 Z M297.5,367.5 C296.671573,367.5 296,368.171573 296,369 C296,369.828427 296.671573,370.5 297.5,370.5 C298.328427,370.5 299,369.828427 299,369 C299,368.171573 298.328427,367.5 297.5,367.5 Z M297.5,368 C298.052285,368 298.5,368.447715 298.5,369 C298.5,369.552285 298.052285,370 297.5,370 C296.947715,370 296.5,369.552285 296.5,369 C296.5,368.447715 296.947715,368 297.5,368 Z M304,346 L292,346 L292,367 L304,367 L304,346 Z M299.5,344 L296.5,344 L296.5,344.5 L299.5,344.5 L299.5,344 Z" id="Shape"></path>
        </g>
    </g>
</svg>