<?xml version="1.0" encoding="UTF-8"?>
<svg width="23px" height="28px" viewBox="0 0 23 28" version="1.1" xmlns="http://www.w3.org/2000/svg" xmlns:xlink="http://www.w3.org/1999/xlink"><g fill="#FFFFFF" fill-rule="nonzero"><path d="M-3.55271368e-15,12.22375 L22.567125,12.22375 L22.567125,16.8730625 L-3.55271368e-15,16.8730625 L-3.55271368e-15,12.22375 Z M-3.55271368e-15,6.216875 L22.567125,6.216875 L22.567125,10.8661875 L-3.55271368e-15,10.8661875 L-3.55271368e-15,6.216875 Z M19.01025,-5.32907052e-15 C21,-5.32907052e-15 22.56275,1.67125 22.567125,3.709125 L22.567125,4.9105 L-3.55271368e-15,4.9105 L-3.55271368e-15,3.709125 C-3.55271368e-15,1.67125 1.614375,-5.32907052e-15 3.59975,-5.32907052e-15 L19.01025,-5.32907052e-15 Z M3.55271368e-15,18.179 L22.677375,18.179 L22.677375,19.380375 C22.677375,21.41825 21.0573125,23.0895 19.072375,23.0895 L18.027625,23.0895 L13.27375,28 L13.27375,23.090375 L3.605,23.090375 C1.61875,23.090375 3.55271368e-15,21.4186875 3.55271368e-15,19.38125 L3.55271368e-15,18.179 Z"></path></g></svg>