<?xml version="1.0" encoding="UTF-8"?>
<svg width="28px" height="18px" viewBox="0 0 28 18" version="1.1" xmlns="http://www.w3.org/2000/svg" xmlns:xlink="http://www.w3.org/1999/xlink"><g fill="#FFFFFF" fill-rule="nonzero"><path d="M17.8918644,2.92018562 L25.3067482,2.92018562 L25.3067482,0.795823699 L17.8918644,0.795823699 L17.8918644,2.92018562 L17.8918644,2.92018562 Z M19.6484543,7.55545244 C19.1759695,8.03619486 18.8779913,8.687471 18.7561659,9.50928072 L24.5231149,9.50928072 C24.4622022,8.63225054 24.1625777,7.96960552 23.6324727,7.51322503 C23.0957827,7.06009281 22.4356209,6.83433878 21.6454024,6.83433878 C20.7893324,6.83433878 20.1209392,7.07470994 19.6484543,7.55545244 L19.6484543,7.55545244 L19.6484543,7.55545244 Z M24.6531716,4.70348025 C25.5471064,5.09651975 26.2829974,5.72018562 26.862491,6.57122969 C27.3909496,7.32157772 27.730085,8.19211137 27.8848361,9.18120647 C27.975382,9.75939675 28.0116004,10.5974478 27.9967838,11.6872389 L18.6738515,11.6872389 C18.7298253,12.9524362 19.1710306,13.8408352 20.0139304,14.3491879 C20.5242799,14.6658933 21.1383455,14.825058 21.8594199,14.825058 C22.6183589,14.825058 23.2390097,14.6317866 23.7147871,14.2468678 C23.9765471,14.037355 24.2070274,13.7482599 24.4045821,13.3779582 L27.8206309,13.3779582 C27.730085,14.125058 27.3152203,14.8867749 26.5809756,15.6598608 C25.4351588,16.8860789 23.8300274,17.5 21.7672277,17.5 C20.063319,17.5 18.5602576,16.9835267 17.2613359,15.9473317 C15.955829,14.912761 15.3071914,13.2269141 15.3071914,10.8946636 C15.3071914,8.70696058 15.8949163,7.02923436 17.0687201,5.86148491 C18.2458165,4.69698372 19.7686334,4.11067282 21.6437561,4.11067282 C22.7582935,4.11067282 23.7608833,4.30881666 24.6531716,4.70348025 L24.6531716,4.70348025 L24.6531716,4.70348025 Z M3.44897463,9.55475639 L3.44897463,14.1071926 L7.65030306,14.1071926 C8.4010107,14.1071926 8.98708938,14.0064965 9.4036004,13.8067285 C10.1625394,13.4331787 10.5411859,12.725058 10.5411859,11.6758701 C10.5411859,10.7858468 10.1757098,10.1767982 9.43981875,9.84385149 C9.02824667,9.6587007 8.45039938,9.56125292 7.70956943,9.55475639 L3.44897463,9.55475639 L3.44897463,9.55475639 Z M3.44897463,2.96403712 L3.44897463,6.73039447 L7.65688822,6.73039447 C8.40594955,6.73039447 9.01672265,6.58909509 9.48756112,6.30649652 C9.95510713,6.02389794 10.1905264,5.52366587 10.1905264,4.80904873 C10.1905264,4.01160095 9.88102412,3.48700695 9.26201963,3.23039447 C8.72532954,3.0533643 8.04376606,2.96403712 7.21568286,2.96403712 L3.44897463,2.96403712 L3.44897463,2.96403712 Z M12.8459899,1.81902551 C13.3744485,2.54501161 13.639501,3.412297 13.639501,4.42412993 C13.639501,5.46519723 13.3744485,6.30487234 12.8394047,6.93828309 C12.5397802,7.29234336 12.1002212,7.61716934 11.5190813,7.90951279 C12.401492,8.22784225 13.0665925,8.72969833 13.5193219,9.41670537 C13.9671124,10.1020881 14.192654,10.9368909 14.192654,11.9178654 C14.192654,12.9296983 13.9358329,13.837587 13.4205446,14.6399072 C13.0945795,15.1709977 12.6862999,15.6192575 12.1957059,15.9830626 C11.6441992,16.400464 10.9939152,16.6846868 10.2415613,16.8406032 C9.48920743,16.9948956 8.67594087,17.0696055 7.79682277,17.0696055 L0,17.0696055 L0,0 L8.36149973,0 C10.4720417,0.03085845 11.9652255,0.636658924 12.8459899,1.81902551 L12.8459899,1.81902551 L12.8459899,1.81902551 Z"></path></g></svg>