<?xml version="1.0" encoding="UTF-8"?>
<svg width="26px" height="26px" viewBox="0 0 26 26" version="1.1" xmlns="http://www.w3.org/2000/svg" xmlns:xlink="http://www.w3.org/1999/xlink"><g fill="#FFFFFF" fill-rule="nonzero"><path d="M25.0639699,15.7175795 C25.5350894,16.6523735 25.8,17.7043877 25.8,18.8187214 C25.8,22.6736336 22.6301035,25.8 18.7196614,25.8 C17.5079962,25.8 16.3700846,25.4987886 15.3721543,24.9705558 C14.6466604,25.102614 13.9000941,25.1723526 13.1354657,25.1723526 C6.392286,25.1723526 0.92549392,19.7831914 0.92549392,13.1328001 C0.92549392,12.3048398 1.0112888,11.494685 1.1723424,10.7142062 C0.55522104,9.67554632 0.2,8.47070072 0.2,7.1827624 C0.2,3.32488264 3.36989648,0.2 7.28184384,0.2 C8.6650988,0.2 9.95653808,0.59320696 11.0477893,1.27130352 C11.7281279,1.15556712 12.4250235,1.09473136 13.1354657,1.09473136 C19.8801505,1.09473136 25.3454374,6.48537648 25.3454374,13.1328001 C25.3454374,14.0201125 25.2491063,14.883684 25.0639699,15.7175795 Z M19.3984948,18.8869762 C19.9644402,18.0961108 20.2534337,17.1924766 20.2534337,16.2012983 C20.2534337,15.3718542 20.0863594,14.6596302 19.7567262,14.0794645 C19.4270931,13.5037501 18.9650047,13.0229989 18.3809972,12.6475975 C17.8060207,12.2781314 17.1046096,11.9635658 16.2903105,11.7083522 C15.4880527,11.4546224 14.5804327,11.2186982 13.5915334,11.0109662 C12.8103481,10.8329102 12.2413923,10.6949168 11.9027282,10.6014374 C11.5715898,10.5124094 11.2404515,10.3848026 10.9198495,10.2260361 C10.6097836,10.0717209 10.3644402,9.89069728 10.1928504,9.67999768 C10.0272813,9.48413608 9.94750704,9.25414712 9.94750704,8.98112792 C9.94750704,8.53302032 10.1958608,8.15465136 10.7046096,7.8267316 C11.2329257,7.48397384 11.9463782,7.31185304 12.8193791,7.31185304 C13.7631232,7.31185304 14.4479774,7.46616824 14.8588899,7.77479856 C15.2818438,8.09233176 15.6506114,8.54192312 15.9546566,9.11170232 C16.2180621,9.55684232 16.4558796,9.86844024 16.684666,10.0687533 C16.9285042,10.2824205 17.2837253,10.3922217 17.7352775,10.3922217 C18.231985,10.3922217 18.6549389,10.218617 18.9890875,9.87437544 C19.321731,9.53458528 19.4903105,9.14286208 19.4903105,8.71256016 C19.4903105,8.26593632 19.3608654,7.80447456 19.1079962,7.3400452 C18.8581374,6.8800672 18.457761,6.43937864 17.9204139,6.02391472 C17.3875823,5.61290208 16.710254,5.28053096 15.9049859,5.03422016 C15.1042333,4.78790936 14.1454374,4.66327016 13.0556914,4.66327016 C11.6904986,4.66327016 10.4863594,4.85022896 9.4733772,5.21969512 C8.44534336,5.59212888 7.64760112,6.14113488 7.10272816,6.84297224 C6.5518344,7.54926096 6.2733772,8.36980232 6.2733772,9.27788792 C6.2733772,10.2319713 6.53979304,11.0436098 7.0635936,11.6920304 C7.57986832,12.3285806 8.28579496,12.8375239 9.16180624,13.2040225 C10.016745,13.5645858 11.0929445,13.8806353 12.3618062,14.1477192 C13.293509,14.3406132 14.0460959,14.5260882 14.6015052,14.6952414 C15.1328316,14.861427 15.5708373,15.098835 15.9049859,15.4044978 C16.2210724,15.6982902 16.3761054,16.0722078 16.3761054,16.5455399 C16.3761054,17.1479626 16.0810913,17.6405842 15.4714958,18.0486292 C14.8498589,18.4670608 14.0220132,18.680728 13.0120414,18.680728 C12.2790216,18.680728 11.6814675,18.5738944 11.2389464,18.36913 C10.7994355,18.1628818 10.4547507,17.9002492 10.2139229,17.5856837 C9.96556912,17.263699 9.730762,16.8512027 9.51401696,16.3615487 C9.31984952,15.914925 9.0790216,15.5662319 8.79755408,15.3303078 C8.50404512,15.0854808 8.14129824,14.9623254 7.72285984,14.9623254 C7.21110064,14.9623254 6.78212608,15.1181244 6.44797744,15.4297224 C6.1108184,15.7428042 5.93922856,16.1256246 5.93922856,16.5648293 C5.93922856,17.2726018 6.20112888,18.0041152 6.72041392,18.74008 C7.23367824,19.4730771 7.90950144,20.0636295 8.72982128,20.4998667 C9.87826904,21.1008057 11.3488241,21.4049846 13.1023518,21.4049846 C14.5638758,21.4049846 15.8462841,21.1809309 16.9164629,20.7417261 C18.0001882,20.2995537 18.8340546,19.6763578 19.3984948,18.8869762 Z"></path></g></svg>