<?xml version="1.0" encoding="UTF-8"?>
<svg width="24px" height="20px" viewBox="0 0 24 20" version="1.1" xmlns="http://www.w3.org/2000/svg" xmlns:xlink="http://www.w3.org/1999/xlink"><g fill="#FFFFFF" fill-rule="nonzero"><path d="M12.3344,8.653024 C14.29952,8.653024 23.8544,3.28 23.8544,3.28 L23.86976,2.32 C23.86976,1.26016 23.0096,0.4 21.94688,0.4 L2.72192,0.4 C1.66016,0.4 0.8,1.26016 0.8,2.32 L0.8,3.17536 C0.8,3.17536 10.45952,8.653024 12.3344,8.653024 Z M12.3344,11.293024 C10.45952,11.293024 0.8144,6.16 0.81536,6.16 L0.8,17.68 C0.8,18.73984 1.66112,19.6 2.72192,19.6 L21.94688,19.6 C23.0096,19.6 23.86976,18.73984 23.86976,17.68 L23.8544,6.16 C23.8544,6.16 14.38976,11.293024 12.3344,11.293024 Z"></path></g></svg>