<?xml version="1.0" encoding="UTF-8"?>
<svg width="50px" height="13px" viewBox="0 0 50 13" version="1.1" xmlns="http://www.w3.org/2000/svg" xmlns:xlink="http://www.w3.org/1999/xlink">
	<g fill="#FFFFFF" fill-rule="nonzero"><path d="M4.14708433,3.71595245 C6.51387541,3.71595245 8.43956484,5.64187294 8.43956484,8.00866402 C8.43956484,10.3754551 6.51410647,12.3009135 4.1473154,12.3009135 C2.23710727,12.3009135 0.539016124,11.018969 0.017735184,9.18339465 C-0.0520462184,8.93800442 0.0902893574,8.68244736 0.335910651,8.61266596 C0.581994074,8.54288456 0.836857938,8.6854512 0.90663934,8.93084143 C1.31562306,10.3706027 2.64817057,11.3764254 4.14708433,11.3764254 C6.00414768,11.3764254 7.51507679,9.8654963 7.51507679,8.00843295 C7.51507679,6.15113854 6.00414768,4.64020943 4.14708433,4.64020943 C2.87784843,4.64020943 1.72876593,5.34241368 1.14856361,6.47254891 C1.05105449,6.66225265 0.835933681,6.76091709 0.628900116,6.71054508 C0.421404422,6.66040414 0.275371819,6.47462849 0.275371819,6.26135619 L0.275371819,0.7195113 C0.275371819,0.464416372 0.482405384,0.257382807 0.737500312,0.257382807 L7.11972586,0.257382807 C7.37482079,0.257382807 7.58185436,0.464416372 7.58185436,0.7195113 C7.58185436,0.974606228 7.37482079,1.18163979 7.11972586,1.18163979 L1.1996288,1.18163979 L1.1996288,4.88467541 C1.98270554,4.1441145 3.02804019,3.71595245 4.14708433,3.71595245 Z M15.3805037,0.0263185609 C18.700897,0.0263185609 21.4022691,2.7274596 21.4022691,6.04785282 C21.4022691,9.36824604 18.700897,12.0696181 15.3805037,12.0696181 C12.0601105,12.0696181 9.35873841,9.36824604 9.35873841,6.04785282 C9.35873841,2.7274596 12.0601105,0.0263185609 15.3805037,0.0263185609 Z M15.3805037,11.1453612 C18.1911692,11.1453612 20.4780121,8.85851832 20.4780121,6.04785282 C20.4780121,3.23718733 18.1914003,0.950575547 15.3805037,0.950575547 C12.5696072,0.950575547 10.2829954,3.23695626 10.2829954,6.04785282 C10.2829954,8.85874938 12.5698382,11.1453612 15.3805037,11.1453612 Z M28.9040009,0.0263185609 C32.224163,0.0263185609 34.9257662,2.7274596 34.9257662,6.04785282 C34.9257662,9.36824604 32.2243941,12.0696181 28.9040009,12.0696181 C25.5836077,12.0696181 22.8822356,9.36824604 22.8822356,6.04785282 C22.8822356,2.7274596 25.5836077,0.0263185609 28.9040009,0.0263185609 Z M28.9040009,11.1453612 C31.7146664,11.1453612 34.0015092,8.85851832 34.0015092,6.04785282 C34.0015092,3.23718733 31.7148974,0.950575547 28.9040009,0.950575547 C26.0931043,0.950575547 23.8064925,3.23695626 23.8064925,6.04785282 C23.8064925,8.85874938 26.0933354,11.1453612 28.9040009,11.1453612 Z M39.5623014,0.0145342843 C41.2892756,0.0145342843 42.6943772,1.41963597 42.6946083,3.14707227 C42.6946083,4.87427752 41.2895066,6.2793792 39.5623014,6.2793792 C39.4606331,6.2793792 39.3603512,6.27475791 39.2612247,6.26505321 C39.007054,6.2405604 38.8210473,6.01481064 38.845309,5.76087103 C38.8695708,5.50670036 39.0964759,5.32138683 39.3494912,5.34495539 C39.4195037,5.35142518 39.4904404,5.35489115 39.5623014,5.35489115 C40.7797789,5.35489115 41.7703513,4.36431872 41.7703513,3.14684121 C41.7703513,1.92936369 40.7797789,0.93879127 39.5623014,0.93879127 C38.3448239,0.93879127 37.3542514,1.92936369 37.3542514,3.14684121 L37.3542514,9.09466598 C37.3542514,9.3497609 37.1472179,9.55679447 36.892123,9.55679447 C36.637028,9.55679447 36.4299945,9.3497609 36.4299945,9.09466598 L36.4299945,3.14684121 C36.4299945,1.41963597 37.8350961,0.0145342843 39.5623014,0.0145342843 Z M49.8629144,5.71951053 C50.0442999,5.89881638 50.0459173,6.19157478 49.8663804,6.37319128 C49.7760343,6.46446166 49.6568051,6.51021238 49.537807,6.51021238 C49.4201953,6.51021238 49.3028147,6.46584804 49.2126996,6.37665725 L46.7333803,3.92367921 L44.265152,6.41847987 C44.1748059,6.50975025 44.0555767,6.55550097 43.9365786,6.55550097 C43.8189669,6.55550097 43.7015863,6.51113664 43.6114712,6.42194584 C43.4300858,6.24240892 43.4284684,5.94965052 43.6080053,5.76826508 L46.0762336,3.27346442 L43.5816639,0.805236136 C43.4002785,0.625699216 43.3986611,0.332940816 43.578198,0.151555382 C43.7577349,-0.029830051 44.0502622,-0.0314475007 44.2318787,0.148089419 L46.7264483,2.6163177 L49.1794264,0.136998335 C49.3589633,-0.0443870985 49.6514906,-0.045773484 49.8331071,0.133532371 C50.0144926,0.313069291 50.01611,0.605827691 49.8365731,0.787213124 L47.3835951,3.26653249 L49.8629144,5.71951053 Z"></path></g></svg>
