<?xml version="1.0" encoding="UTF-8"?>
<svg width="26px" height="25px" viewBox="0 0 26 25" version="1.1" xmlns="http://www.w3.org/2000/svg" xmlns:xlink="http://www.w3.org/1999/xlink"><g fill="#FFFFFF" fill-rule="nonzero"><path d="M5.960542,7.87784832 L0.52161712,7.87784832 L0.52161712,24.2195598 L5.960542,24.2195598 L5.960542,7.87784832 Z M6.31876328,2.82269768 C6.28346248,1.22040328 5.13765392,0 3.277032,0 C1.41641008,0 0.2,1.22040328 0.2,2.82269768 C0.2,4.39180312 1.3804576,5.64734768 3.20643048,5.64734768 L3.24118816,5.64734768 C5.13765392,5.64734768 6.31876328,4.39180312 6.31876328,2.82269768 Z M25.5753856,14.8497218 C25.5753856,9.83025488 22.8922015,7.49411328 19.3131382,7.49411328 C16.425427,7.49411328 15.13255,9.08024704 14.4106765,10.1929485 L14.4106765,7.87828216 L8.97109992,7.87828216 C9.04278768,9.41170384 8.97109992,24.2199936 8.97109992,24.2199936 L14.4106765,24.2199936 L14.4106765,15.0934337 C14.4106765,14.6050338 14.4459773,14.117827 14.5897871,13.7681486 C14.9828747,12.7924334 15.877885,11.7822276 17.3805028,11.7822276 C19.3494166,11.7822276 20.1364608,13.2807249 20.1364608,15.4767349 L20.1364608,24.2195598 L25.5751684,24.2195598 L25.5753856,14.8497218 Z"></path></g></svg>