<?xml version="1.0" encoding="UTF-8"?>
<svg width="34px" height="48px" viewBox="0 0 34 48" version="1.1" xmlns="http://www.w3.org/2000/svg" xmlns:xlink="http://www.w3.org/1999/xlink">
    <!-- Generator: Sketch 58 (84663) - https://sketch.com -->
    <title>Shape</title>
    <desc>Created with Sketch.</desc>
    <g id="Page-1" stroke="none" stroke-width="1" fill="none" fill-rule="evenodd">
        <g id="Apple-Devices" transform="translate(-584.000000, -333.000000)" fill="#FFFFFF">
            <path d="M616.00008,333 C617.104605,333 618,333.894938 618,335.001389 L618,378.998611 C618,380.103948 617.108059,381 616.00008,381 L585.99992,381 C584.895395,381 584,380.105062 584,378.998611 L584,335.001389 C584,333.896052 584.891941,333 585.99992,333 L616.00008,333 Z M600.5,377.5 C599.671573,377.5 599,378.171573 599,379 C599,379.828427 599.671573,380.5 600.5,380.5 C601.328427,380.5 602,379.828427 602,379 C602,378.171573 601.328427,377.5 600.5,377.5 Z M600.5,378 C601.052285,378 601.5,378.447715 601.5,379 C601.5,379.552285 601.052285,380 600.5,380 C599.947715,380 599.5,379.552285 599.5,379 C599.5,378.447715 599.947715,378 600.5,378 Z M616,337 L586,337 L586,377 L616,377 L616,337 Z M601,334 C600.447715,334 600,334.447715 600,335 C600,335.552285 600.447715,336 601,336 C601.552285,336 602,335.552285 602,335 C602,334.447715 601.552285,334 601,334 Z" id="Shape"></path>
        </g>
    </g>
</svg>