<?xml version="1.0" encoding="UTF-8"?>
<svg width="26px" height="26px" viewBox="0 0 26 26" version="1.1" xmlns="http://www.w3.org/2000/svg" xmlns:xlink="http://www.w3.org/1999/xlink"><g fill="#FFFFFF" fill-rule="nonzero"><path d="M25.6,12.782255 C25.6,13.647893 25.5118732,14.5123302 25.338776,15.3549551 C25.1699874,16.1775688 24.919986,16.9851741 24.592479,17.7572092 C24.2724872,18.5155867 23.875591,19.2463986 23.4118108,19.9279328 C22.9549444,20.6051646 22.4286387,21.2405226 21.850479,21.8196991 C21.2710668,22.3963742 20.633538,22.92122 19.9566302,23.3800286 C19.2728586,23.8405882 18.5409906,24.2369117 17.7821686,24.5583929 C17.0090177,24.8841765 16.199544,25.1338172 15.3776454,25.3023122 C14.533903,25.47586 13.6663127,25.5644599 12.7994238,25.5644599 C11.9318837,25.5644599 11.0643435,25.47586 10.2218035,25.3023122 C9.3986524,25.1338172 8.5892288,24.8841765 7.81667912,24.5583929 C7.0579072,24.2369117 6.32533776,23.8405882 5.64156616,23.3800286 C4.9646584,22.9212701 4.3271296,22.3963742 3.74896992,21.8196991 C3.17020896,21.2405226 2.64390328,20.6051646 2.1863856,19.9279328 C1.72511032,19.2463986 1.32756288,18.5155366 1.00631856,17.7572092 C0.67876152,16.9851741 0.4281588,16.1775188 0.25876904,15.3549551 C0.0875256,14.5123302 0,13.647893 0,12.782255 C0,11.9159667 0.08747544,11.0496784 0.25881912,10.2089045 C0.42820896,9.3862908 0.6788116,8.57743488 1.00636864,7.8066504 C1.32761304,7.04772256 1.7251604,6.31626032 2.18643568,5.63467608 C2.64395336,4.95689408 3.17025912,4.32273664 3.74902,3.74290976 C4.32717968,3.16618472 4.96470848,2.64258952 5.64161632,2.18448136 C6.32538784,1.72197064 7.05795728,1.32569728 7.81672928,1.00361568 C8.58927888,0.67713168 9.3986524,0.42689064 10.2218536,0.25964632 C11.0643936,0.08739928 11.9319338,-7.10542736e-15 12.7994739,-7.10542736e-15 C13.6663628,-7.10542736e-15 14.533903,0.08739928 15.3776955,0.25964632 C16.1995941,0.42694064 17.0090177,0.67718168 17.7822186,1.00361568 C18.5409906,1.3256472 19.2729087,1.72197064 19.9566803,2.18448136 C20.6335881,2.64258952 21.271167,3.16618472 21.8505291,3.74290976 C22.4286888,4.32273664 22.9549945,4.95689408 23.4118609,5.63467608 C23.875591,6.31626032 24.2724872,7.04777264 24.592479,7.8066504 C24.919986,8.57743488 25.1699874,9.3862908 25.338776,10.2089045 C25.5118732,11.0496784 25.6,11.9159667 25.6,12.782255 Z M8.13541848,2.90908976 C5.087104,4.3465 2.81199048,7.15133104 2.10256744,10.5316364 C2.39074552,10.5341378 6.94598264,10.5915702 12.1943602,9.19908528 C10.3024152,5.84249328 8.28106064,3.1032492 8.13541848,2.90908976 Z M13.1000268,10.8799327 C7.47163704,12.5625311 2.07070352,12.4414629 1.87696496,12.4340087 C1.87380856,12.5513248 1.86819736,12.6648888 1.86819736,12.782255 C1.86819736,15.5864356 2.9276224,18.1428766 4.66896528,20.0758662 C4.66520776,20.070213 7.65665816,14.7707258 13.5556908,12.8659022 C13.6981766,12.8184754 13.8432175,12.7760014 13.9869558,12.7348282 C13.7126055,12.1144786 13.4131549,11.4928282 13.1000268,10.8799327 Z M20.0185544,4.5898872 C18.0940441,2.895332 15.5670754,1.86745264 12.7994238,1.86745264 C11.9112422,1.86745264 11.0493134,1.97481312 10.2236572,2.17327504 C10.3873856,2.39299888 12.4406542,5.112932 14.3101041,8.54061408 C18.4347274,6.99654376 19.9916504,4.62980968 20.0185544,4.5898872 Z M14.7320003,14.5435478 C14.7076515,14.5516023 14.6833026,14.5585562 14.6595049,14.5672611 C8.20990232,16.8124441 6.1036972,21.3371318 6.08090912,21.3865243 C7.93666984,22.8276173 10.2642887,23.6970574 12.7994238,23.6970574 C14.3132103,23.6970574 15.7551526,23.3892838 17.0670842,22.8320198 C16.9052094,21.8783322 16.2701857,18.5354979 14.7320003,14.5435478 Z M18.9078766,21.8346576 C21.3623498,20.1807253 23.1055465,17.5543949 23.5918218,14.5122802 C23.3668206,14.4398894 20.3085361,13.4730944 16.7802087,14.0379628 C18.2140348,17.9725306 18.7966034,21.1768368 18.9078766,21.8346576 Z M15.1514417,10.167131 C15.4051506,10.6876743 15.6508434,11.217473 15.8776984,11.7499231 C15.9583602,11.9409308 16.0371182,12.1281863 16.1139724,12.3153918 C19.8691547,11.8435258 23.5687255,12.6374234 23.7268928,12.6698416 C23.7018926,10.082233 22.7749333,7.7073944 21.2411568,5.8481464 C21.2205154,5.87741296 19.4672986,8.4070388 15.1514417,10.167131 Z"></path></g></svg>