<?xml version="1.0" encoding="UTF-8"?>
<svg width="48px" height="48px" viewBox="0 0 48 48" version="1.1" xmlns="http://www.w3.org/2000/svg" xmlns:xlink="http://www.w3.org/1999/xlink">
    <!-- Generator: Sketch 58 (84663) - https://sketch.com -->
    <title>Group 3</title>
    <desc>Created with Sketch.</desc>
    <g id="Page-2" stroke="none" stroke-width="1" fill="none" fill-rule="evenodd">
        <g id="Group-3" fill-rule="nonzero">
            <path d="M0,24 C0,10.7451654 10.7451654,0 24,0 C37.2548346,0 48,10.7451654 48,24 C48,37.2548346 37.2548346,48 24,48 C10.7451654,48 0,37.2548346 0,24 Z" id="back" fill="#E44D26"></path>
            <g id="icon-html" transform="translate(13.000000, 8.000000)" fill="#FFFFFF">
                <g id="Group" transform="translate(2.092500, 0.000000)">
                    <polygon id="Path" points="0.0261225 0.02106 1.4637375 0.02106 1.4637375 1.4415975 2.778975 1.4415975 2.778975 0.02106 4.2169275 0.02106 4.2169275 4.3226325 2.778975 4.3226325 2.778975 2.88225 1.4637375 2.88225 1.4637375 4.322565 0.0261225 4.322565"></polygon>
                    <polygon id="Path" points="6.107535 1.44747 4.84164 1.44747 4.84164 0.02106 8.81145 0.02106 8.81145 1.4475375 7.5452175 1.4475375 7.5452175 4.3226325 6.1074675 4.3226325 6.1074675 1.44747"></polygon>
                    <polygon id="Path" points="9.4418325 0.02106 10.9410075 0.02106 11.863125 1.53252 12.784365 0.02106 14.2841475 0.02106 14.2841475 4.3226325 12.8523375 4.3226325 12.8523375 2.1905775 11.863125 3.7199925 11.83842 3.7199925 10.8485325 2.1905775 10.8485325 4.322565 9.4418325 4.322565"></polygon>
                    <polygon id="Path" points="14.9997825 0.02106 16.4380725 0.02106 16.4380725 2.90088 18.460035 2.90088 18.460035 4.322565 14.9997825 4.322565"></polygon>
                </g>
                <path d="M7.604685,16.65063 L11.34,16.65063 L11.34,13.75353 L7.3460925,13.75353 L7.604685,16.65063 Z M0.046305,6.208785 L2.10303,29.276235 L11.334465,31.83894 L20.5746075,29.27745 L22.63383,6.208785 L0.046305,6.208785 Z M18.811845,27.8087175 L11.34,29.88009 L11.34,26.944245 L11.3354775,26.945595 L5.5400625,25.3367325 L5.1347925,20.7941175 L7.974855,20.7941175 L8.185185,23.1508125 L11.336085,24.001785 L11.3400675,24.0005025 L11.3400675,19.479825 L5.01741,19.479825 L4.254255,10.9242675 L11.34,10.9242675 L11.34,8.0950725 L20.571705,8.0950725 L18.811845,27.8087175 Z" id="Shape"></path>
                <path d="M14.82246,19.479825 L11.34,19.479825 L11.34,24.00057 L14.49414,23.1491925 L14.82246,19.479825 Z M11.34,8.095005 L11.34,10.9242675 L18.4258125,10.9242675 L18.1724175,13.75353 L11.34,13.75353 L11.34,16.65063 L17.914905,16.65063 L17.1387225,25.3367325 L11.34,26.944245 L11.34,29.88009 L18.811845,27.8087175 L20.5716375,8.095005 L11.34,8.095005 L11.34,8.095005 Z" id="Shape" opacity="0.8"></path>
                <g id="Group" opacity="0.2" transform="translate(4.252500, 10.867500)">
                    <polygon id="Path" points="7.0875 0.0567675 0.0016875 0.0567675 0.7648425 8.612325 7.0875 8.612325 7.0875 5.78313 3.352185 5.78313 3.0935925 2.88603 7.0875 2.88603"></polygon>
                    <polygon id="Path" points="7.0875 13.1330025 7.0835175 13.134285 3.932685 12.2833125 3.722355 9.9266175 0.882225 9.9266175 1.287495 14.469165 7.0829775 16.0780275 7.0875 16.076745"></polygon>
                </g>
            </g>
        </g>
    </g>
</svg>