<?xml version="1.0" encoding="UTF-8"?>
<svg width="48px" height="48px" viewBox="0 0 48 48" version="1.1" xmlns="http://www.w3.org/2000/svg" xmlns:xlink="http://www.w3.org/1999/xlink">
    <!-- Generator: Sketch 58 (84663) - https://sketch.com -->
    <title>Group 4</title>
    <desc>Created with Sketch.</desc>
    <g id="Page-2" stroke="none" stroke-width="1" fill="none" fill-rule="evenodd">
        <g id="Group-4">
            <path d="M0,24 C0,10.7451654 10.7451654,0 24,0 C37.2548346,0 48,10.7451654 48,24 C48,37.2548346 37.2548346,48 24,48 C10.7451654,48 0,37.2548346 0,24 Z" id="back-copy" fill="#0071BC" fill-rule="nonzero"></path>
            <path d="M35.4,14.237 L33.359304,37.09676 L24.186448,39.64 L15.038512,37.100512 L13,14.237 L35.4,14.237 Z M33.356224,16.141 L24.218816,16.141 L24.218,18.742 L17.168304,18.74276 L17.416776,21.54276 L24.218,21.542 L24.218,21.735 L17.666144,24.541 L17.911704,27.341 L24.218,27.341 L24.218816,31.867144 L24.197144,31.870392 L21.069264,31.030392 L20.86492,28.797 L18.049856,28.797 L18.442696,33.19692 L24.196528,34.790064 L24.218816,34.7848 L24.218816,37.69484 L31.621736,35.658288 L33.356224,16.141 Z M20.952,8.038472 L20.952,9.494472 L18.936,9.494472 L18.936,10.838472 L20.952,10.838472 L20.952,12.294472 L17.48,12.294472 L17.48,8.038472 L20.952,8.038472 Z M25.88,8.038472 L25.88,9.494472 L24.56288,9.494472 L25.88,10.877056 L25.88,12.294472 L22.408,12.294472 L22.408,10.838472 L23.856776,10.838472 L22.408,9.533 L22.408,8.038472 L25.88,8.038472 Z M30.92,8.038472 L30.92,9.494472 L29.54688,9.494472 L30.92,10.877056 L30.92,12.294472 L27.448,12.294472 L27.448,10.838472 L28.840776,10.838472 L27.448,9.533 L27.448,8.038472 L30.92,8.038472 Z" id="Shape" fill="#FFFFFF"></path>
            <g id="Group-2" transform="translate(24.168304, 16.141000)" fill="#FFFFFF" opacity="0.800000012">
                <path d="M5.785248,17.05284 L6.540408,8.4 L0.050512,8.4 L6.794984,5.40176 L7.03584,2.60176 L0.05,2.601 L0.050512,0 L9.18792,0 L7.453432,19.517288 L0.050512,21.55384 L0.050512,18.645984 L5.785248,17.05284 Z M0.05,11.2 L3.475024,11.2 L3.163776,14.860776 L0.050512,15.728552 L0.050512,15.726144 L0.05,11.2 Z M0.05,5.401 L0.5,5.40176 L0.05,5.593 L0.05,5.401 Z" id="Combined-Shape"></path>
            </g>
        </g>
    </g>
</svg>